PathFileType	4	(X/Y/Z)	C:\Users\Basilio\Documents\Thesis Gigler\squatting_fais\c3dfiles\044\SLS_front_pre1\markers_experimental.trc
DataRate	CameraRate	NumFrames	NumMarkers	Units	OrigDataRate	OrigDataStartFrame	OrigNumFrames
200.000000	200.000000	4	60	mm	200.000000	0	1570
Frame#	Time	FHD			LBHD			RBHD			C7			T10			CLAV			LSHO			LUUPA			LMUPA			LDUPA			LLEP			LMEP			LUL			LRFIN			RSHO			RUPA1			RMUPA			RDUPA			RLEP			RMEP			RUL			RUFIN			LASI			RASI			USACR			LSACR			LTHI1			LTHI2			LTHI3			LTHI4			LLFC			LMFC			LTIB1			LTIB2			LTIB3			LTIB4			LLMAL			LMMAL			LHEE			LMT1			LMT2			LMT5			RTHI			RTHI2			RTHI3			RTHI4			RLFC			RMFC			RTIB1			RTIB2			RTIB3			RTIB4			RLMAL			RHEE			RMT1			RMT2			RMT5			RMMAL			RSACR			LRAD			
		X1	Y1	Z1	X2	Y2	Z2	X3	Y3	Z3	X4	Y4	Z4	X5	Y5	Z5	X6	Y6	Z6	X7	Y7	Z7	X8	Y8	Z8	X9	Y9	Z9	X10	Y10	Z10	X11	Y11	Z11	X12	Y12	Z12	X13	Y13	Z13	X14	Y14	Z14	X15	Y15	Z15	X16	Y16	Z16	X17	Y17	Z17	X18	Y18	Z18	X19	Y19	Z19	X20	Y20	Z20	X21	Y21	Z21	X22	Y22	Z22	X23	Y23	Z23	X24	Y24	Z24	X25	Y25	Z25	X26	Y26	Z26	X27	Y27	Z27	X28	Y28	Z28	X29	Y29	Z29	X30	Y30	Z30	X31	Y31	Z31	X32	Y32	Z32	X33	Y33	Z33	X34	Y34	Z34	X35	Y35	Z35	X36	Y36	Z36	X37	Y37	Z37	X38	Y38	Z38	X39	Y39	Z39	X40	Y40	Z40	X41	Y41	Z41	X42	Y42	Z42	X43	Y43	Z43	X44	Y44	Z44	X45	Y45	Z45	X46	Y46	Z46	X47	Y47	Z47	X48	Y48	Z48	X49	Y49	Z49	X50	Y50	Z50	X51	Y51	Z51	X52	Y52	Z52	X53	Y53	Z53	X54	Y54	Z54	X55	Y55	Z55	X56	Y56	Z56	X57	Y57	Z57	X58	Y58	Z58	X59	Y59	Z59	X60	Y60	Z60	

1	0	-203.4416503906251	1766.765014648438	-1034.831420898438	-342.4213256835938	1756.638916015625	-1105.730346679688	-382.6412048339844	1752.07275390625	-944.4724731445315	-433.6469116210939	1566.00244140625	-1031.755249023438	-440.6205139160157	1258.605346679688	-1014.793334960938	-292.8025817871094	1525.967041015625	-1025.283935546875	-333.8296508789063	1576.000732421875	-1175.588623046875	-174.184326171875	1525.337890625	-1275.427612304688	-144.3634338378907	1532.84814453125	-1235.17626953125	-106.509262084961	1510.596313476563	-1277.6064453125	-47.54758453369141	1501.059326171875	-1267.885498046875	-68.86264038085939	1423.988037109375	-1254.156127929688	186.7935485839844	1481.069580078125	-1113.19091796875	209.8770599365235	1490.951049804688	-1007.606079101563	-355.3522033691407	1574.817749023438	-868.6163330078127	-208.6811523437501	1520.125244140625	-756.9473266601564	-174.0433959960938	1530.440185546875	-792.590759277344	-140.4451293945313	1508.147583007813	-748.8929443359376	-78.7659378051758	1500.344848632813	-755.3180541992189	-94.23070526123048	1420.462158203125	-768.299987792969	175.6890869140625	1471.476440429688	-874.7078247070315	192.8923797607422	1466.743530273438	-988.539245605469	-243.5854034423829	1072.363403320313	-1095.589965820313	-262.6799011230469	1056.627319335938	-877.7260742187502	-423.9947814941407	1108.44873046875	-997.365417480469	-422.9439697265626	1075.7080078125	-1025.003051757813	-323.7074584960938	829.6143798828127	-1163.821411132813	-289.5431518554688	752.9868164062501	-1150.566284179688	-242.5844421386719	758.0242309570314	-1142.089965820313	-316.1858520507813	701.2580566406251	-1140.741333007813	-300.3355712890626	541.7190551757814	-1111.740234375	-303.4825134277344	544.6236572265626	-989.1951293945315	-287.0143127441407	371.3400573730469	-1024.168579101563	-302.9772644042969	318.7988281250001	-1092.977294921875	-276.5928039550782	320.7492065429688	-1054.129760742188	-295.0711669921876	245.3023071289063	-1019.978820800781	-343.4954223632813	126.9302291870117	-1060.111328125	-325.7429504394532	137.1824188232422	-975.464050292969	-408.0513916015626	110.6221313476563	-1008.838073730469	-202.9552154541016	62.26833724975587	-984.8352661132815	-201.1711425781251	63.97282791137697	-1031.68701171875	-239.2131958007813	50.48790740966798	-1078.505981445313	-322.3921203613282	783.7569580078127	-789.5999145507815	-272.8426208496094	738.6676025390626	-777.562194824219	-241.0702056884766	746.3991088867189	-783.0991821289065	-282.4541320800782	655.7020263671876	-785.9763793945315	-264.8641357421876	545.8519897460939	-776.9299926757815	-266.9617309570313	524.3202514648439	-898.972595214844	-223.6281127929688	414.7827758789064	-788.515808105469	-298.0291748046876	353.4987487792969	-732.4306640625001	-257.2031555175782	342.0561523437501	-749.1934204101564	-250.0691223144532	287.7927246093751	-768.006042480469	-319.7518310546876	136.9025268554688	-729.1387939453126	-382.5558166503907	106.1554718017578	-769.6470336914065	-180.3077697753907	69.87395477294923	-812.3233032226565	-170.2361755371094	63.78565979003908	-776.0983886718752	-205.9075164794922	44.34599304199219	-723.8894042968751	nan	nan	nan	nan	nan	nan	nan	nan	nan	
2	0.005	-203.5846557617188	1766.867919921875	-1034.95703125	-342.4101562500001	1756.659423828125	-1105.92529296875	-382.7478027343751	1752.013061523438	-944.6431274414065	-433.6833801269532	1566.021850585938	-1031.97802734375	-440.6341857910157	1258.651245117188	-1015.001525878906	-292.8381958007813	1525.956787109375	-1025.505615234375	-333.8767395019532	1576.026977539063	-1175.809814453125	-174.0408477783203	1525.320434570313	-1275.742065429688	-144.3673706054688	1532.718383789063	-1235.387329101563	-106.618896484375	1510.555541992188	-1277.843505859375	-47.64277648925782	1500.970825195313	-1268.089477539063	-68.95342254638673	1424.620239257813	-1254.251953125	186.7914123535157	1480.86181640625	-1113.457275390625	209.8586883544922	1490.845458984375	-1007.932800292969	-355.2779846191407	1574.830932617188	-868.8723144531252	-208.8906250000001	1520.640747070313	-757.7003173828126	-173.928451538086	1530.336547851563	-792.8894653320315	-140.5121154785157	1508.11376953125	-749.1036987304689	-78.7452850341797	1500.267211914063	-755.5444335937501	-94.26638031005861	1420.375854492188	-768.5213012695315	175.656478881836	1471.292602539063	-875.050231933594	193.0988769531251	1466.593383789063	-988.7084960937502	-244.2019348144532	1072.994873046875	-1095.546752929688	-262.7005004882813	1056.6923828125	-877.984069824219	-423.9766540527345	1108.500854492188	-997.687683105469	-422.9688110351564	1075.72802734375	-1025.206298828125	-323.7055358886719	829.579040527344	-1163.964233398438	-289.5728759765626	753.0046386718751	-1150.711669921875	-242.6199188232422	757.9576416015626	-1142.167236328125	-316.1820678710938	701.2626953125001	-1140.906494140625	-300.4742126464844	541.6771240234376	-1111.844848632813	-303.5942077636719	544.6237182617189	-989.261901855469	-286.9495239257813	371.3907470703126	-1024.233642578125	-303.6617736816407	317.9920654296876	-1093.099243164063	-276.6137390136719	320.7518615722657	-1054.162841796875	-295.1723022460938	245.2825317382813	-1019.907043457031	-343.4954223632813	126.9302291870117	-1060.111328125	-325.7200317382813	137.181869506836	-975.4606933593752	-408.0011291503907	110.5818481445313	-1008.889221191406	-202.9798583984376	62.26704788208009	-984.7798461914065	-201.1711425781251	63.97282791137697	-1031.68701171875	-239.2084350585938	50.51317977905275	-1078.54248046875	-322.3316955566407	783.7678833007815	-789.7835693359377	-272.8457031250001	738.6916503906251	-777.773620605469	-240.9079589843751	746.4863281250001	-783.3197021484377	-282.4219665527344	655.7631225585939	-786.235046386719	-264.5249633789063	545.9279174804689	-777.0823364257815	-266.6964721679688	524.4013671875001	-899.1536254882815	-223.4284973144532	414.7908935546876	-788.6279907226565	-297.9292297363282	353.6109924316407	-732.6179809570314	-257.1059570312501	342.2357482910157	-749.3793945312501	-249.7602081298829	287.9341430664063	-768.220397949219	-319.6574096679688	136.9472351074219	-729.2291259765626	-382.4082336425782	106.1760330200196	-769.724060058594	-180.0702362060547	70.14662170410158	-812.3933105468752	-169.8438110351563	64.16461181640626	-776.2785644531252	-205.5354461669922	44.6135482788086	-724.0055541992189	nan	nan	nan	nan	nan	nan	nan	nan	nan	
3	0.01	-203.7648315429688	1767.161743164063	-1034.98046875	-342.6432495117188	1756.69873046875	-1106.074096679688	-382.8881835937501	1751.980712890625	-944.8516845703127	-433.6660156250001	1566.016845703125	-1032.236328125	-440.6284179687501	1258.679809570313	-1015.26513671875	-292.8177490234376	1525.993408203125	-1025.734008789063	-333.9496765136719	1576.01318359375	-1176.047119140625	-174.0984649658203	1525.333862304688	-1275.984008789063	-144.366455078125	1532.642456054688	-1235.62939453125	-106.6244659423828	1510.5244140625	-1278.1162109375	-47.61772537231446	1500.8916015625	-1268.350463867188	-69.03212738037111	1424.60693359375	-1254.485717773438	186.7785339355469	1480.705688476563	-1113.7001953125	209.7954711914063	1490.648681640625	-1008.2451171875	-355.2230224609376	1574.860717773438	-869.1252441406252	-208.8919677734376	1520.622314453125	-757.8889160156251	-173.9216003417969	1530.278930664063	-793.040954589844	-140.5302276611328	1508.09375	-749.2647094726564	-78.72915649414064	1500.187866210938	-755.7376098632814	-94.22059631347658	1420.324096679688	-768.8191528320315	175.5828247070313	1471.180297851563	-875.274353027344	192.6858367919922	1466.394653320313	-988.998474121094	-243.525863647461	1072.367919921875	-1096.06787109375	-262.6592407226563	1056.731689453125	-878.207946777344	-423.9505920410157	1108.538696289063	-997.9258422851565	-422.9406738281251	1075.724853515625	-1025.425048828125	-323.6967163085938	829.577575683594	-1164.154174804688	-289.5769042968751	752.9370727539064	-1150.850341796875	-242.675033569336	757.9412841796876	-1142.377075195313	-316.2457885742188	701.2353515625001	-1141.041259765625	-300.5240173339844	541.6842651367189	-1111.896118164063	-303.7361145019532	544.6710815429689	-989.3353271484377	-286.6704101562501	371.5442199707032	-1024.298583984375	-302.9746398925782	318.7752685546876	-1093.031372070313	-276.6209106445313	320.7630615234376	-1054.187377929688	-295.1385192871094	245.3402709960938	-1019.97802734375	-343.4900817871094	126.8878173828125	-1060.113403320313	-325.7532653808594	137.1263580322266	-975.4525146484377	-407.2047729492189	109.6920623779297	-1009.357543945313	-202.9806823730469	62.27331924438478	-984.750915527344	-201.1711425781251	63.9728240966797	-1031.68701171875	-239.1921386718751	50.56415939331056	-1078.54931640625	-322.2691345214844	783.8663330078127	-790.026794433594	-272.8215332031251	738.7114868164064	-778.308776855469	-240.730697631836	746.5137939453126	-783.3808593750002	-282.3755798339844	655.8018188476564	-786.4260253906252	-264.4221191406251	545.9834594726564	-777.2315673828127	-266.6005554199219	524.4923095703126	-899.2903442382815	-223.2312469482422	414.8596801757814	-788.764831542969	-297.7831420898438	353.6755981445313	-732.7763061523439	-256.9618835449219	342.4843139648438	-749.5903320312501	-249.6787109375001	287.9891662597657	-768.2930908203127	-319.5331726074219	137.0712280273438	-729.3020019531251	-382.3000488281251	106.1009826660157	-769.725036621094	-179.7457733154297	70.43100738525392	-812.544860839844	-169.6504211425782	64.51406860351564	-776.383483886719	-205.0924987792969	44.76776123046876	-724.0056762695314	nan	nan	nan	nan	nan	nan	nan	nan	nan	
4	0.015	-203.9935913085938	1767.219116210938	-1035.022338867188	-342.7194213867188	1756.720947265625	-1106.212158203125	-383.0206604003907	1751.959350585938	-945.0342407226565	-433.6145935058595	1566.038452148438	-1032.445556640625	-440.664764404297	1258.742431640625	-1015.462463378906	-292.7938232421876	1525.975952148438	-1025.933959960938	-333.9447937011719	1576.009155273438	-1176.285522460938	-174.188232421875	1525.196044921875	-1276.156982421875	-144.3490753173828	1532.568969726563	-1235.908081054688	-106.6836853027344	1510.448852539063	-1278.3955078125	-47.67415618896485	1500.816650390625	-1268.592651367188	-69.09450531005861	1424.5361328125	-1254.730590820313	185.8511199951172	1480.825805664063	-1113.922241210938	209.7234344482422	1490.474731445313	-1008.527770996094	-355.2336425781251	1574.904052734375	-869.3383789062502	-208.8797149658204	1520.622436523438	-758.0490722656251	-173.9068603515625	1530.253540039063	-793.204772949219	-140.579574584961	1508.08984375	-749.4235839843751	-78.76326751708986	1500.166381835938	-755.9252319335939	-94.28164672851564	1420.278442382813	-768.971862792969	175.7237243652344	1470.589233398438	-875.130310058594	192.6446533203126	1466.344848632813	-989.1970214843752	-243.3761901855469	1072.421508789063	-1096.394775390625	-262.6545715332032	1056.80078125	-878.4838867187502	-423.8987731933595	1108.598510742188	-998.1392822265627	-422.9110717773439	1075.722290039063	-1025.640991210938	-323.7029113769532	829.5510253906252	-1164.283813476563	-289.5702819824219	752.9152221679689	-1150.984741210938	-242.6674957275391	757.9468994140626	-1142.42529296875	-316.2610778808594	701.2089843750001	-1141.180908203125	-300.5707702636719	541.6810913085939	-1111.929931640625	-303.8089294433594	544.6550292968751	-989.4407348632815	-286.8624267578126	371.4163513183594	-1024.335083007813	-303.7022094726563	317.9313964843751	-1093.148315429688	-276.5903320312501	320.7702026367188	-1054.197021484375	-295.2305297851563	245.3079681396485	-1019.984008789063	-343.5266113281251	126.8653717041016	-1060.115234375	-325.7670288085938	137.1892852783203	-975.4326171875002	-408.0057678222657	110.5836181640625	-1008.856689453125	-202.9505615234376	62.27302169799806	-984.7586669921877	-201.1711425781251	63.9728240966797	-1031.68701171875	-239.2042083740235	50.58204650878908	-1078.547973632813	-322.2540588378907	783.9179687500002	-790.204772949219	-272.7880554199219	738.7854003906251	-778.491638183594	-240.7212982177735	746.5488281250001	-783.526062011719	-282.2275085449219	655.9063720703126	-786.6876220703127	-264.3463745117188	546.0665893554689	-777.4421997070315	-266.4009094238282	524.5665283203126	-899.5232543945315	-223.0986633300782	414.8998107910157	-788.872985839844	-297.5968017578126	353.7805175781251	-732.9479370117189	-256.9095153808594	342.4805908203126	-749.7601928710939	-249.5999908447266	288.0491027832032	-768.3690185546877	-319.3969116210938	137.2210388183594	-729.4079589843751	-382.1911010742188	106.041374206543	-769.8015747070315	-179.4987335205078	70.73021697998048	-812.6360473632815	-169.3680267333985	64.76981353759767	-776.4910278320315	-204.5505676269532	45.13631820678712	-724.0714721679689	nan	nan	nan	nan	nan	nan	nan	nan	nan	
